<svg width="39" height="39" fill="none" xmlns="http://www.w3.org/2000/svg"><circle cx="19" cy="19" r="14" transform="rotate(-180 19 19)" fill="#3369F3"/><path fill="#E3F6F5" d="M25 19.8H14v-1.6h11z"/><path d="m18 24-4-5 4-5" stroke="#E3F6F5" stroke-width="1.6"/><circle cx="19.5" cy="19.5" r="19.5" transform="rotate(-180 19.5 19.5)" fill="#FFD803"/><path fill="#272343" d="M27.857 20.615h-15.32v-2.23h15.32z"/><path d="M18.107 26.464 12.536 19.5l5.571-6.964" stroke="#272343" stroke-width="1.6"/><circle cx="19" cy="19" r="14" transform="rotate(-180 19 19)" fill="#272343"/><path fill="#E3F6F5" d="M25 19.8H14v-1.6h11z"/><path d="m18 24-4-5 4-5" stroke="#E3F6F5" stroke-width="1.6"/><circle cx="19.5" cy="19.5" r="19.5" transform="rotate(-180 19.5 19.5)" fill="#FFFFFE"/><path fill="#272343" d="M27.857 20.615h-15.32v-2.23h15.32z"/><path d="M18.107 26.464 12.536 19.5l5.571-6.964" stroke="#272343" stroke-width="1.6"/></svg>