<svg width="39" height="39" viewBox="0 0 39 39" fill="none" xmlns="http://www.w3.org/2000/svg">
<circle cx="19" cy="19" r="14" transform="rotate(-180 19 19)" fill="#3369F3"></circle>
<rect x="25" y="19.8" width="11" height="1.6" transform="rotate(-180 25 19.8)" fill="#E3F6F5"></rect>
<path d="M18 24L14 19L18 14" stroke="#E3F6F5" stroke-width="1.6"></path>
<circle cx="19.5" cy="19.5" r="19.5" transform="rotate(-180 19.5 19.5)" fill="#FFD803"></circle>
<rect x="27.8572" y="20.6144" width="15.3214" height="2.22857" transform="rotate(-180 27.8572 20.6144)" fill="#272343"></rect>
<path d="M18.1072 26.4643L12.5357 19.5L18.1072 12.5357" stroke="#272343" stroke-width="1.6"></path>
<circle cx="19" cy="19" r="14" transform="rotate(-180 19 19)" fill="#272343"></circle>
<rect x="25" y="19.8" width="11" height="1.6" transform="rotate(-180 25 19.8)" fill="#E3F6F5"></rect>
<path d="M18 24L14 19L18 14" stroke="#E3F6F5" stroke-width="1.6"></path>
<circle cx="19.5" cy="19.5" r="19.5" transform="rotate(-180 19.5 19.5)" fill="#FFFFFE"></circle>
<rect x="27.8572" y="20.6144" width="15.3214" height="2.22857" transform="rotate(-180 27.8572 20.6144)" fill="#272343"></rect>
<path d="M18.1072 26.4643L12.5357 19.5L18.1072 12.5357" stroke="#272343" stroke-width="1.6"></path>
</svg>
